<?xml version="1.0" standalone="no"?>
<!DOCTYPE svg PUBLIC "-//W3C//DTD SVG 20010904//EN"
 "http://www.w3.org/TR/2001/REC-SVG-20010904/DTD/svg10.dtd">
<svg version="1.0" xmlns="http://www.w3.org/2000/svg"
 width="16.000000pt" height="16.000000pt" viewBox="0 0 16.000000 16.000000"
 preserveAspectRatio="xMidYMid meet">
<metadata>
Created by potrace 1.11, written by Peter Selinger 2001-2013
</metadata>
<g transform="translate(0.000000,16.000000) scale(0.003125,-0.003125)"
fill="#000000" stroke="none">
<path d="M2993 4099 c-88 -16 -127 -48 -437 -356 -326 -325 -326 -325 -413
-308 -21 4 -51 9 -68 11 -53 6 -298 44 -363 56 -88 15 -173 6 -214 -23 -61
-44 -77 -72 -124 -219 -25 -80 -54 -170 -64 -200 -19 -54 -101 -314 -195 -615
-26 -82 -49 -156 -50 -165 -6 -39 47 -118 82 -121 7 -1 19 -2 26 -3 34 -5 76
26 185 136 95 95 126 121 147 121 23 -1 101 -74 452 -424 233 -233 430 -435
438 -449 18 -35 11 -45 -118 -177 -61 -61 -114 -119 -119 -127 -46 -82 36
-177 132 -155 36 8 120 34 445 139 66 21 194 62 285 90 338 105 379 121 416
159 69 71 76 135 40 346 -4 25 -26 170 -42 275 -14 91 -15 140 -3 162 6 12
145 156 307 320 163 163 305 314 316 335 27 53 44 132 40 183 -3 24 -26 134
-53 244 -27 111 -66 271 -86 356 -36 150 -39 156 -80 196 -38 37 -71 52 -155
69 -8 2 -91 22 -185 45 -93 23 -177 43 -186 45 -9 2 -66 15 -125 30 -122 30
-170 35 -231 24z"/>
<path d="M1454 2108 c-39 -30 -195 -186 -217 -218 -24 -34 -21 -74 7 -107 19
-22 32 -28 65 -28 39 0 47 6 152 110 108 108 137 145 134 175 -1 8 -3 23 -3
33 -2 20 -58 57 -88 57 -11 0 -33 -10 -50 -22z"/>
<path d="M1509 1638 c-219 -219 -224 -224 -224 -264 0 -27 7 -49 19 -63 25
-28 80 -37 109 -19 12 9 115 108 229 222 221 220 239 246 212 299 -18 33 -43
47 -87 47 -31 0 -54 -19 -258 -222z"/>
<path d="M1056 1715 c-14 -13 -26 -28 -27 -32 0 -4 -2 -17 -4 -27 -5 -25 20
-73 44 -86 81 -43 167 40 126 120 -29 55 -93 67 -139 25z"/>
<path d="M2005 1601 c-59 -25 -77 -104 -33 -148 30 -29 96 -36 120 -12 55 55
47 124 -19 158 -25 13 -40 13 -68 2z"/>
<path d="M1679 1293 c-127 -125 -144 -152 -124 -199 20 -48 45 -61 107 -55 20
1 258 236 259 256 1 8 2 21 3 28 3 20 -23 66 -43 77 -11 5 -34 10 -52 10 -28
0 -49 -16 -150 -117z"/>
<path d="M1129 1260 c-23 -13 -217 -210 -236 -237 -18 -26 -9 -85 17 -108 10
-9 33 -18 53 -22 31 -5 40 0 93 48 33 30 92 89 132 131 80 86 90 116 50 163
-25 28 -83 42 -109 25z"/>
</g>
</svg>
